<!--?xml version="1.0" encoding="utf-8"?-->
<!-- Generator: Adobe Illustrator 18.1.1, SVG Export Plug-In . SVG Version: 6.00 Build 0)  -->

<svg version="1.1" id="_x31_0" xmlns="http://www.w3.org/2000/svg" xmlns:xlink="http://www.w3.org/1999/xlink" x="0px" y="0px" viewBox="0 0 512 512" style="width: 512px; height: 512px; opacity: 1;" xml:space="preserve">
<style type="text/css">
	.st0{fill:#374149;}
</style>
<g>
	<path class="st0" d="M509.859,325.881c-3.055-9.246-8.481-16.629-14.29-22.618c-11.828-11.945-25.195-19.386-38.121-25.582
		c-13.016-6.016-25.848-10.492-38.211-14.11c-5.156-1.484-10.195-2.844-15.176-4.058l-41.414-127.41
		c-1.958-34.324-47.133-59.938-106.657-59.938c-59.492,0-104.699,25.614-106.625,59.938l-41.41,127.41
		c-4.981,1.214-10.05,2.574-15.18,4.058c-12.359,3.618-25.195,8.094-38.21,14.11c-12.922,6.195-26.325,13.637-38.122,25.582
		c-5.808,5.989-11.266,13.371-14.289,22.618c-3.258,9.191-2.695,20.16,0.832,29.438c3.496,9.398,9.633,16.84,16.125,23.179
		c1.157,1.11,2.438,2.016,3.637,3.059c0.856,0.746,1.742,1.488,2.641,2.226c4.875,3.984,9.93,7.683,15.242,10.93
		c15.27,9.102,31.75,15.95,48.824,21.582c17.106,5.602,34.832,9.988,53.004,13.398c36.371,6.938,74.523,10.05,113.531,10.14
		c39.043-0.09,77.192-3.202,113.535-10.14c18.199-3.41,35.926-7.797,53.031-13.398c17.074-5.633,33.555-12.481,48.821-21.582
		c5.211-3.195,10.191-6.828,14.996-10.738c1.023-0.832,2.027-1.676,2.996-2.527c1.153-1.008,2.39-1.879,3.5-2.95
		c6.523-6.339,12.629-13.781,16.125-23.179C512.554,346.041,513.089,335.072,509.859,325.881z M283.339,99.689
		c0.867-4.004,4.816-6.546,8.809-5.683c8.39,1.809,16.031,4.378,22.706,7.641c6.454,3.152,11.665,6.773,15.481,10.762
		c4.418,4.613,6.75,9.613,6.75,14.461c0,4.09-3.317,7.41-7.41,7.41s-7.41-3.321-7.41-7.41c0-0.508-0.55-2.035-2.633-4.211
		c-1.793-1.871-5.207-4.726-11.285-7.695c-5.598-2.734-12.102-4.914-19.325-6.469C285.022,107.631,282.48,103.689,283.339,99.689z
		 M132.881,269.088l5.102-15.742l29.223-89.898c18.015,15.102,49.691,25.199,85.938,25.71v34.332c0,0.215,0.05,0.422,0.066,0.637
		c-2.758,3.79-3.977,8.774-2.633,14.059c1.438,5.648,6.031,10.285,11.675,11.73c11.066,2.836,21-5.442,21-16.047
		c0-2.61-0.773-4.969-1.847-7.16c-0.402-0.969-0.746-1.93-1.297-2.926c0.011-0.098,0.027-0.195,0.027-0.294v-8.769
		c0-3.34,2.816-5.798,6.156-5.766c0.024,0,0.051,0,0.074,0h10.383c0.023,0,0.05,0,0.074,0c3.34-0.032,6.157,2.426,6.157,5.766
		v38.562c-2.723,3.793-3.91,8.762-2.555,14.023c1.45,5.629,6.043,10.25,11.676,11.687c11.058,2.825,20.985-5.457,20.985-16.054
		c0-3.606-1.161-6.934-3.114-9.656c0,0-0.133-35.602-0.274-59.278c-0.062-10.023,4.082-19.246,10.824-26.481
		c1.329-1.398,2.73-2.75,4.278-4.004l29.203,89.825l5.098,15.742l14.496,44.582c-3.675,11.266-50.394,34.18-137.606,34.18
		c-87.179,0-133.898-22.914-137.606-34.18L132.881,269.088z M490.058,347.908c-2.078,5.426-6.375,10.699-11.504,15.473
		c-5.188,4.801-11.383,9.102-18.055,12.984c-13.426,7.707-28.691,13.871-44.73,18.914c-16.066,5.039-32.934,9.039-50.363,12.152
		c-34.801,6.313-71.676,9.192-109.414,9.278c-37.707-0.086-74.582-2.965-109.414-9.278c-17.399-3.113-34.298-7.113-50.333-12.152
		c-16.038-5.043-31.305-11.207-44.762-18.914c-6.641-3.882-12.836-8.183-18.023-12.984c-5.129-4.774-9.426-10.047-11.531-15.473
		c-2.074-5.367-2.61-10.789-0.89-16.156c1.574-5.367,4.98-10.61,9.308-15.325c8.774-9.457,20.454-16.722,32.047-22.706
		c11.707-5.93,23.652-10.614,35.274-14.555c1.453-0.504,2.906-0.98,4.359-1.422l-10.554,32.43v2.102
		c0,42.778,85.285,62.25,164.519,62.25c79.238,0,164.524-19.473,164.524-62.25v-2.102l-6.734-20.742l-3.688-11.656
		c1.418,0.434,2.836,0.898,4.254,1.39c11.621,3.942,23.566,8.626,35.278,14.555c11.558,5.984,23.269,13.25,32.011,22.706
		c4.359,4.715,7.738,9.958,9.34,15.325C492.694,337.12,492.16,342.541,490.058,347.908z" style="fill: rgb(252, 215, 161);"></path>
</g>
</svg>
